<?xml version="1.0" standalone="no"?>
<!DOCTYPE svg PUBLIC "-//W3C//DTD SVG 20010904//EN"
 "http://www.w3.org/TR/2001/REC-SVG-20010904/DTD/svg10.dtd">
<svg version="1.0" xmlns="http://www.w3.org/2000/svg"
 width="300.000000pt" height="290.000000pt" viewBox="0 0 300.000000 290.000000"
 preserveAspectRatio="xMidYMid meet">
<metadata>
Created by potrace 1.10, written by Peter Selinger 2001-2011
</metadata>
<g transform="translate(0.000000,290.000000) scale(0.050000,-0.050000)"
fill="#666666" stroke="none">
<path d="M1640 4560 l0 -1240 -821 0 -822 0 39 -55 c21 -30 63 -103 92 -161
72 -143 173 -250 344 -365 223 -151 247 -188 356 -560 72 -242 138 -313 420
-449 300 -145 286 -145 385 10 184 287 251 332 473 314 253 -22 475 -246 644
-652 94 -224 151 -304 317 -444 132 -111 141 -124 227 -340 197 -490 300 -561
872 -596 316 -19 288 -39 213 147 -60 151 -106 360 -95 432 3 19 -16 59 -42
87 l-49 52 73 0 c68 0 77 8 124 99 l50 100 -43 40 c-46 43 -50 38 55 71 30 10
30 14 0 60 -45 68 -41 74 38 59 63 -12 73 -7 105 49 19 34 45 62 57 62 13 0
45 18 73 39 27 22 55 34 61 28 27 -27 121 20 220 109 58 53 133 107 167 121
41 17 74 53 98 106 42 91 135 159 439 317 110 57 202 106 204 108 3 2 18 143
35 313 17 170 35 332 40 359 l8 50 -223 -5 c-123 -2 -735 -7 -1359 -10 l-1135
-5 0 936 c0 1014 1 1002 -105 935 -33 -20 -52 -18 -108 12 l-67 36 0 536 0
535 -59 0 c-32 0 -64 -9 -71 -20 -8 -13 -213 -20 -550 -20 -337 0 -542 7 -550
20 -7 11 -39 20 -71 20 l-59 0 0 -1240z m1127 1113 c-1 -18 4 -33 13 -33 8 0
16 -187 18 -415 3 -501 2 -493 52 -549 21 -25 37 -53 35 -61 -3 -8 9 -15 26
-15 17 0 26 -8 20 -19 -7 -10 19 -42 57 -71 l68 -52 1 -389 0 -389 -50 -12
c-157 -40 -247 11 -309 176 -50 135 -175 276 -243 276 -48 0 -204 -136 -207
-179 -5 -75 -112 -261 -156 -272 -75 -19 -203 -2 -197 26 3 14 -12 25 -34 25
-55 0 -60 370 -5 415 32 27 32 28 -1 17 -29 -9 -35 2 -35 60 0 51 7 66 25 55
19 -11 20 -8 2 14 -32 41 -33 1159 0 1159 14 0 13 7 -4 18 -35 22 -12 102 30
102 16 0 24 9 17 20 -7 12 -21 16 -30 10 -9 -6 -23 -1 -31 11 -7 12 5 27 29
33 23 6 42 27 42 46 0 33 30 36 435 31 391 -4 435 -8 432 -38z m-255 -1866
c27 -108 59 -231 69 -271 l20 -75 283 -5 283 -6 -208 -148 c-115 -81 -216
-153 -223 -160 -8 -7 25 -138 74 -292 48 -153 85 -282 81 -286 -4 -4 -95 68
-201 159 -106 92 -202 170 -211 174 -10 3 -117 -71 -237 -165 -120 -95 -223
-172 -227 -172 -5 0 34 122 85 271 l95 272 -174 134 c-96 74 -201 154 -233
178 l-58 44 284 0 284 1 19 70 c11 38 44 164 74 280 31 116 59 207 63 203 5
-5 31 -97 58 -206z m-708 -658 c1 -10 29 -30 62 -44 33 -14 55 -31 49 -37 -7
-6 -3 -36 7 -66 14 -38 12 -74 -4 -114 -46 -113 -63 -319 -28 -344 11 -8 30
-32 42 -54 12 -22 32 -40 44 -40 11 0 28 -8 37 -18 10 -11 5 -12 -13 -1 -26
14 -26 12 -3 -16 24 -31 32 -30 99 6 41 21 81 39 90 39 8 0 40 22 70 50 63 59
165 110 217 110 50 0 271 -149 252 -170 -8 -9 0 -11 18 -5 18 7 50 0 70 -16
41 -30 75 -38 60 -13 -6 8 16 27 47 41 32 14 64 43 70 64 7 22 26 39 43 39 16
0 24 9 17 20 -7 11 -1 21 14 22 20 1 20 3 1 11 -35 14 -31 60 6 75 17 6 26 21
19 32 -7 11 -21 15 -31 9 -11 -6 -19 12 -19 40 0 28 7 51 17 51 30 0 68 -96
58 -149 -5 -29 0 -52 13 -53 13 -1 14 -5 2 -10 -13 -5 -19 -239 -17 -653 3
-473 -2 -649 -20 -661 -17 -13 -17 -20 2 -27 14 -6 25 -20 25 -32 0 -12 -23
-1 -51 26 -27 26 -46 59 -40 74 6 15 3 23 -6 17 -17 -11 -85 59 -71 73 4 4
-10 45 -32 91 -22 45 -40 97 -40 114 0 18 -10 26 -21 19 -13 -8 -19 2 -15 24
4 23 -4 35 -22 31 -19 -4 -24 7 -16 37 8 31 3 39 -17 31 -16 -6 -26 -4 -24 4
3 8 -6 28 -20 44 -13 17 -75 95 -138 175 -62 80 -121 145 -131 145 -10 0 -54
17 -98 39 -44 21 -106 44 -139 51 -33 7 -56 19 -51 27 5 7 -54 8 -131 3 -81
-6 -147 -2 -159 10 -14 13 -17 10 -9 -10 7 -21 -20 -44 -92 -78 -101 -48 -197
-127 -197 -162 0 -10 -18 -28 -41 -40 -22 -12 -35 -30 -29 -40 11 -17 -22 -46
-60 -53 -11 -2 -36 -9 -55 -17 -40 -16 -49 20 -10 38 14 7 0 7 -31 2 -67 -13
-111 7 -71 32 24 15 -31 29 -86 21 -25 -3 -138 139 -126 158 6 10 -3 13 -21 6
-17 -6 -30 -4 -27 6 7 29 -67 256 -89 270 -11 7 -15 32 -9 55 6 23 4 38 -5 32
-9 -5 -22 6 -29 25 -7 19 -4 37 8 41 11 4 21 16 21 27 0 11 -19 14 -43 6 -36
-11 -41 -7 -32 29 8 28 2 42 -16 42 -16 0 -41 26 -58 58 -16 31 -44 63 -62 69
-17 7 -26 22 -19 33 7 11 -1 20 -17 20 -16 0 -34 14 -41 31 -6 17 -21 26 -32
19 -11 -7 -20 -4 -20 7 0 10 -28 29 -62 41 -34 11 -66 39 -72 62 -6 22 -19 40
-28 40 -10 0 -18 14 -18 31 0 41 60 61 82 27 10 -16 18 -18 18 -5 0 16 147 23
515 25 569 3 551 1 634 46 59 31 133 23 135 -15z m1254 -179 c2 -71 -4 -130
-15 -130 -27 0 -44 80 -16 81 13 0 7 9 -12 21 -57 33 -33 133 37 157 1 1 4
-57 6 -129z m1516 -351 c675 -1 1159 -9 1136 -19 -34 -15 -35 -17 -5 -19 43
-1 47 -208 7 -321 l-26 -70 -144 -1 c-162 -2 -302 -95 -302 -201 0 -97 -313
-368 -426 -368 -73 0 -269 -138 -273 -192 0 -12 -19 -30 -41 -40 -82 -37 -261
-232 -249 -271 13 -41 -22 -52 -38 -12 -5 14 -7 -18 -4 -71 5 -77 0 -94 -23
-85 -15 6 -23 2 -16 -8 6 -11 -17 -58 -51 -105 -70 -96 -71 -160 -8 -463 36
-178 11 -217 -107 -167 -41 17 -117 37 -169 44 -52 7 -95 20 -95 29 0 9 -20
22 -44 28 -24 6 -38 18 -30 25 7 8 -2 26 -22 40 -20 13 -53 61 -75 106 -21 45
-46 82 -54 82 -8 0 -15 23 -15 50 0 28 -9 50 -20 50 -11 0 -20 23 -20 50 0 28
-8 50 -18 50 -9 0 -28 27 -42 60 -17 42 -39 60 -70 60 -38 0 -48 14 -60 85
-25 143 -34 1700 -11 1685 13 -7 21 9 21 40 l0 51 59 -60 60 -61 1175 -1z
m880 -579 c-8 -30 0 -40 29 -40 33 0 35 -6 15 -44 l-23 -44 -38 46 c-43 54
-48 94 -12 109 40 16 40 15 29 -27z m-644 -578 c38 -15 38 -16 -5 -39 -37 -20
-47 -17 -65 17 -24 44 -4 50 70 22z"/>
<path d="M1856 4869 c-3 -160 0 -306 8 -325 7 -19 14 112 15 291 0 179 -3 325
-8 325 -5 0 -12 -131 -15 -291z"/>
<path d="M3500 4532 c50 -14 110 -36 134 -49 33 -17 45 -17 51 2 7 19 21 18
63 -4 45 -24 58 -24 71 -3 19 32 32 14 50 -73 16 -75 38 -81 86 -25 46 55 73
50 134 -22 l52 -62 39 47 39 47 0 -48 c1 -55 26 -42 35 18 8 56 -27 67 -71 23
-39 -39 -40 -39 -85 9 -50 54 -133 64 -151 18 -18 -47 -45 -35 -59 25 -8 30
-22 66 -33 80 -27 35 -82 32 -68 -3 9 -24 3 -24 -43 -1 -30 16 -61 20 -71 10
-10 -10 -46 -5 -84 11 -37 15 -93 27 -123 26 -45 -1 -39 -6 34 -26z"/>
<path d="M5072 4425 c-9 -8 -53 -16 -99 -18 -45 -1 -132 -17 -193 -36 -200
-60 -203 -61 -241 -10 -31 42 -41 44 -87 23 -43 -19 -52 -18 -52 6 0 43 -68
37 -110 -10 -42 -46 -22 -55 23 -10 39 39 67 38 67 -1 0 -24 14 -28 67 -18 51
9 70 5 80 -19 6 -18 30 -32 52 -32 23 0 41 -10 41 -21 0 -12 24 -3 53 20 29
22 67 41 85 42 17 0 68 13 111 29 53 19 87 22 103 8 15 -13 41 -11 74 4 58 26
124 10 102 -25 -9 -14 -5 -18 9 -9 39 24 243 -28 290 -75 34 -34 64 -42 148
-39 l105 4 0 -397 c0 -380 2 -400 48 -483 26 -49 63 -136 82 -195 19 -59 62
-136 94 -170 l60 -63 -50 70 c-27 39 -65 120 -84 180 -19 61 -56 149 -82 198
-46 83 -48 103 -48 485 l0 397 -104 0 c-73 0 -116 11 -145 37 -22 21 -106 53
-186 73 -80 19 -150 42 -156 52 -14 22 -37 23 -57 3z"/>
</g>
</svg>
